<svg width="71" height="75" viewBox="0 0 71 75" fill="none" xmlns="http://www.w3.org/2000/svg">
<path d="M57.9831 45H39.1813V33.8158H31.6868V45H13.0164C11.9646 45 11.0442 45.3947 10.3868 46.0526C9.72941 46.7105 9.33496 47.7632 9.33496 48.6842V71.1842C9.33496 72.2368 9.72941 73.1579 10.3868 73.8158C11.0442 74.4737 12.0961 74.8684 13.0164 74.8684H57.8516C58.9035 74.8684 59.8239 74.4737 60.4813 73.8158C61.1387 73.1579 61.5331 72.1053 61.5331 71.1842V48.6842C61.5331 47.6316 61.1387 46.7105 60.4813 46.0526C59.8239 45.3947 58.9035 45 57.9831 45Z" fill="#31559E"/>
<path d="M21.3 32.7632L14.2 30.3947C15.6463 25.9211 18.5389 21.9737 22.3519 19.2105C26.1648 16.4474 30.7667 15 35.5 15C40.2333 15 44.8352 16.4474 48.6481 19.2105C52.4611 21.9737 55.3537 25.9211 56.8 30.3947L49.7 32.7632C48.6481 29.7368 46.8074 27.2368 44.3093 25.3947C41.8111 23.5526 38.6556 22.5 35.5 22.5C32.3444 22.5 29.3204 23.5526 26.6907 25.3947C24.1926 27.2368 22.3519 29.7368 21.3 32.7632ZM35.5 0C18.9333 0 4.9963 10.7895 0 25.6579L7.1 28.0263C9.07222 22.1053 12.8852 16.8421 18.013 13.1579C23.1407 9.47368 29.1889 7.5 35.5 7.5C41.8111 7.5 47.8593 9.47368 52.987 13.1579C58.1148 16.8421 61.9278 21.9737 63.9 28.0263L71 25.6579C66.0037 10.7895 52.0667 0 35.5 0Z" fill="#DE3228"/>
</svg>
