<svg width="74" height="74" viewBox="0 0 74 74" fill="none" xmlns="http://www.w3.org/2000/svg">
<path d="M56.4737 35.0526C52.9399 35.0526 50.0752 37.8944 50.0752 41.4003V57.6377C50.0752 61.1429 52.9399 63.9849 56.4737 63.9849C60.0075 63.9849 62.8722 61.1429 62.8722 57.6377V41.4003C62.8722 37.8945 60.0075 35.0526 56.4737 35.0526Z" fill="#DE3228"/>
<path d="M17.5264 35.0526C13.9928 35.0526 11.1279 37.8944 11.1279 41.4003V57.6377C11.1279 61.1429 13.9927 63.9849 17.5264 63.9849C21.0603 63.9849 23.9249 61.1429 23.9249 57.6377V41.4003C23.9251 37.8945 21.0605 35.0526 17.5264 35.0526Z" fill="#DE3228"/>
<path d="M70.7709 42.5237V33.0022C70.7709 14.8048 55.6209 0 36.9999 0C18.379 0 3.22908 14.8048 3.22908 33.0022V42.5237C1.25125 44.0925 0 46.5197 0 49.2422C0 54.0028 3.8346 57.8647 8.57042 57.8647V40.6329C8.12659 40.6329 7.696 40.6731 7.26542 40.7398V39.2378C7.26542 23.2797 20.5988 10.2851 36.9999 10.2851C53.4009 10.2851 66.7344 23.2797 66.7344 39.2378V40.7398C66.3038 40.6731 65.8733 40.6329 65.4293 40.6329V57.1027C65.4663 57.0299 65.5082 56.9609 65.5442 56.8869C65.6944 56.5785 65.9622 56.3713 66.267 56.2776L68.009 52.6737C67.3713 51.9062 67.1972 50.8073 67.6603 49.8495C68.2903 48.5464 69.8527 48.0027 71.1503 48.6355C72.4478 49.2682 72.989 50.8375 72.3591 52.1409C71.8962 53.0987 70.929 53.6407 69.9338 53.6125L68.085 57.4377C71.5187 56.3125 74 53.0699 74 49.2419C74 46.5198 72.7486 44.0925 70.7709 42.5237Z" fill="#31559E"/>
<path d="M65.2397 58.072V57.3082C60.3819 66.9587 46.9475 69.8561 44.1776 70.3577C43.5678 69.6931 42.4999 69.2485 41.2756 69.2485C39.3752 69.2485 37.8345 70.3121 37.8345 71.6245C37.8345 72.9362 39.375 74 41.2756 74C42.5752 74 43.6926 73.4969 44.2783 72.7628C46.6082 72.3892 61.9722 69.518 67.4871 58.1354C67.5126 58.0829 67.5118 58.0273 67.5291 57.9733L67.685 58.05L67.8796 57.6442C67.0479 57.9192 66.162 58.072 65.2397 58.072Z" fill="#31559E"/>
</svg>
