<svg width="90" height="72" viewBox="0 0 90 72" fill="none" xmlns="http://www.w3.org/2000/svg">
<g clip-path="url(#clip0_603_7625)">
<path d="M67.5 12.3C71 14.3 74.9 16.2 79.2 17.9C78.1 23.1 75.1 29.6 67.5 34.3C59.9 29.6 56.9 23.1 55.8 17.9C60.1 16.2 64 14.3 67.5 12.3ZM67.5 45.7C45.5 36 44.8 16.2 45 10.8C57.8 7 64.7 2.3 67.5 0C70.3 2.3 77.2 7 90 10.9C90.2 16.2 89.5 36 67.5 45.7ZM83.8 15.3L82.2 14.7C77 12.8 72.4 10.6 68.5 8.2L67.4 7.5L66.3 8.2C62.4 10.6 57.8 12.8 52.6 14.7L51 15.3L51.2 16.9C52.2 23.4 55.6 32.3 66.2 38.4L67.2 39L68.2 38.4C78.9 32.3 82.3 23.3 83.2 16.9L83.8 15.3Z" fill="#DE3228"/>
<path d="M17.7 39.9C17.9 44.9 18.5 49.7 19.7 53.9C23.8 52.2 28.2 51.2999 32.7 51V39.9H17.7ZM19.7 21.7C18.5 26 17.8 30.7999 17.7 35.7999H32.7V24.5C28.2 24.2999 23.8 23.4 19.7 21.7ZM21 17.8C24.7 19.4 28.6 20.2999 32.7 20.5V3.69995C27.9 4.89995 23.7 10.2 21 17.8ZM8.8 14.8C3.7 20.4 0.4 27.6999 0 35.7999H13.6C13.8 30 14.6 24.5999 15.9 19.9C13.4 18.5 11 16.8 8.8 14.8ZM11.7 12C13.4 13.5 15.2 14.8 17.2 15.9C18.8 11.7 20.8 8.09995 23.2 5.29995C19 6.79995 15.1 9.09995 11.7 12ZM20.9 57.7999C23.6 65.3999 27.9 70.8 32.6 72V55.0999C28.6 55.2999 24.6 56.2 20.9 57.7999ZM41.1 7.79995L42.4 7.39995H42.5C41 5.69995 39 4.19995 36.7 3.69995V20.6C38.4 20.5 40 20.2999 41.6 20C40.5 13.7 41 9.19995 41 9.09995L41.1 7.79995ZM17.2 59.7C15.3 60.7999 13.4 62.0999 11.7 63.5999C15 66.5 18.9 68.8 23.2 70.3C20.8 67.6 18.8 63.9 17.2 59.7ZM13.6 39.9H0C0.5 47.9 3.7 55.2 8.8 60.7999C11 58.7999 13.4 57.0999 15.9 55.7999C14.6 51 13.8 45.6 13.6 39.9ZM36.7 55.0999V72C41.5 70.8 45.7 65.5 48.5 57.7999C44.8 56.2 40.9 55.2999 36.7 55.0999ZM42.6 23.7999C40.7 24.1999 38.7 24.4 36.7 24.6V35.7999H48.4C45.6 31.7999 43.8 27.5999 42.6 23.7999ZM36.7 39.9V51C41.2 51.2 45.6 52.2 49.7 53.9C50.8 49.7 51.5 44.9 51.7 39.9H36.7ZM66.7 49.7999C62.3 48 58.7 45.7 55.7 43.2999C55.4 47.7 54.6 51.9 53.5 55.7C56.1 57.1 58.5 58.7999 60.7 60.7999C63.5 57.7 65.7 54.0999 67.3 50.0999L66.7 49.7999ZM52.2 59.5999C50.6 63.8999 48.5 67.6 46 70.4C50.4 68.9 54.3 66.5999 57.7 63.5999C56 62.0999 54.1 60.7999 52.2 59.5999Z" fill="#31559E"/>
</g>
<defs>
<clipPath id="clip0_603_7625">
<rect width="90" height="72" fill="white"/>
</clipPath>
</defs>
</svg>
