<svg width="92" height="62" viewBox="0 0 92 62" fill="none" xmlns="http://www.w3.org/2000/svg">
<path d="M92 42.616C92 53.2674 83.3449 61.9769 72.792 61.9769H58.4004V53.9775H63.8925C65.1577 53.9775 66.3079 53.2094 66.7967 52.0356C67.2999 50.8617 67.0555 49.4995 66.1641 48.5865L49.4146 30.9791C48.8251 30.356 47.9912 29.9937 47.1286 29.9937C46.266 29.9937 45.4465 30.356 44.8426 30.9791L28.0931 48.5865C27.2161 49.514 26.9717 50.8617 27.4605 52.0356C27.9637 53.2094 29.0995 53.9775 30.3647 53.9775H35.8568V61.9769H19.208C8.6551 61.9624 0 53.2529 0 42.616C0 34.5731 4.83075 27.8924 11.5737 24.9506C11.5737 24.3854 11.4587 23.8202 11.4587 23.255C11.4587 16.9077 16.7351 11.7051 23.0323 11.7051C26.8567 11.7051 30.221 13.6325 32.3632 16.4584C35.8425 6.93736 44.9289 0.0393066 55.6112 0.0393066C69.3127 0.0393066 80.3257 11.2414 80.5557 24.9506C87.2843 28.0083 92 34.689 92 42.616Z" fill="#31559E"/>
<path d="M62.7278 49.7603L47.7755 34.0658C47.4304 33.689 46.841 33.689 46.4815 34.0658L31.5292 49.7603C30.9829 50.34 31.3854 51.2819 32.1762 51.2819H39.0054V61.9623H55.2517V51.2819H62.0808C62.8716 51.2819 63.2742 50.34 62.7278 49.7603Z" fill="#DE3228"/>
</svg>
