<svg width="57" height="65" viewBox="0 0 57 65" fill="none" xmlns="http://www.w3.org/2000/svg">
<path d="M53.465 31.5166H3.53498C1.5725 31.5166 0 33.0924 0 35.0591V43.3291C0 45.2957 1.5725 46.8715 3.53498 46.8715H53.465C55.3269 46.8715 57 45.2957 57 43.3291V35.0591C57 33.0924 55.3269 31.5166 53.465 31.5166ZM52.6851 39.9883C52.6851 40.6817 52.0938 41.1733 51.5025 41.1733H45.2125C44.5206 41.1733 44.03 40.6817 44.03 39.9883V38.4125C44.03 37.8199 44.5206 37.2274 45.2125 37.2274H51.5025C52.0938 37.2274 52.6851 37.8199 52.6851 38.4125V39.9883Z" fill="#DE3228"/>
<path d="M53.465 49.6326H3.53498C1.5725 49.6326 0 51.2084 0 53.1876V61.4576C0 63.4243 1.5725 65.0001 3.53498 65.0001H53.465C55.3269 65.0001 57 63.4243 57 61.4576V53.1876C57 51.2084 55.3269 49.6326 53.465 49.6326ZM52.6851 58.1042C52.6851 58.7976 52.0938 59.2893 51.5025 59.2893H45.2125C44.5206 59.2893 44.03 58.7976 44.03 58.1042V56.5284C44.03 55.835 44.5206 55.3434 45.2125 55.3434H51.5025C52.0938 55.3434 52.6851 55.835 52.6851 56.5284V58.1042Z" fill="#31559E"/>
<path d="M3.53498 10.7409C2.94372 10.7409 2.35246 10.8417 1.86184 11.0308L7.8625 2.86171C9.04502 1.28588 11.5988 0 13.5612 0H43.4388C45.3006 0 47.8543 1.28588 49.0369 2.86171L55.1382 11.0308C54.5469 10.8291 53.9556 10.7409 53.465 10.7409H3.53498ZM57 16.9434V25.2133C57 27.18 55.3269 28.7558 53.465 28.7558H3.53498C1.5725 28.7558 0 27.18 0 25.2133V16.9434C0 15.065 1.5725 13.4009 3.53498 13.4009H53.465C55.3269 13.3883 57 15.065 57 16.9434ZM52.6851 20.2841C52.6851 19.6916 52.0938 19.0991 51.5025 19.0991H45.2125C44.5206 19.0991 44.03 19.6916 44.03 20.2841V21.86C44.03 22.5533 44.5206 23.045 45.2125 23.045H51.5025C52.0938 23.045 52.6851 22.5533 52.6851 21.86V20.2841Z" fill="#31559E"/>
</svg>
