<svg width="64" height="64" viewBox="0 0 64 64" fill="none" xmlns="http://www.w3.org/2000/svg">
<path d="M13.3334 0H2.66663C1.19463 0 0 1.19463 0 2.66663V61.3334C0 62.8055 1.19463 64.0001 2.66663 64.0001H13.3333C14.8053 64.0001 15.9999 62.8055 15.9999 61.3335V2.66663C16 1.19463 14.8054 0 13.3334 0Z" fill="#31559E"/>
<path d="M61.3334 0H50.6668C49.1946 0 48 1.19463 48 2.66663V61.3334C48 62.8054 49.1946 64 50.6666 64H61.3333C62.8053 64 63.9999 62.8054 63.9999 61.3334V2.66663C64 1.19463 62.8054 0 61.3334 0Z" fill="#31559E"/>
<path d="M42.6669 21.3333H21.3336C19.8616 21.3333 18.667 22.5279 18.667 23.9999V61.3333C18.667 62.8053 19.8616 64 21.3336 64H42.667C44.139 64 45.3337 62.8053 45.3337 61.3333V23.9999C45.3337 22.5279 44.1389 21.3333 42.6669 21.3333ZM34.6669 53.3333H29.3335C27.8615 53.3333 26.6669 52.1387 26.6669 50.6667C26.6669 49.1947 27.8616 47.9999 29.3336 47.9999H34.667C36.139 47.9999 37.3337 49.1946 37.3337 50.6666C37.3337 52.1386 36.1389 53.3333 34.6669 53.3333ZM34.6669 45.3333H29.3335C27.8615 45.3333 26.6669 44.1387 26.6669 42.6667C26.6669 41.1947 27.8616 39.9999 29.3336 39.9999H34.667C36.139 39.9999 37.3337 41.1945 37.3337 42.6665C37.3337 44.1385 36.1389 45.3333 34.6669 45.3333ZM34.6669 37.3333H29.3335C27.8615 37.3333 26.6669 36.1387 26.6669 34.6667C26.6669 33.1947 27.8616 31.9999 29.3336 31.9999H34.667C36.139 31.9999 37.3337 33.1945 37.3337 34.6665C37.3337 36.1385 36.1389 37.3333 34.6669 37.3333Z" fill="#DE3228"/>
</svg>
