<svg width="74" height="65" viewBox="0 0 74 65" fill="none" xmlns="http://www.w3.org/2000/svg">
<path fill-rule="evenodd" clip-rule="evenodd" d="M41.6849 5.9198H0V64.3564H8.33697V47.6602H16.6739V64.3564H58.3588V39.3121H41.6849V5.9198ZM16.6739 14.2679H8.33697V22.616H16.6739V14.2679ZM33.3479 14.2679H25.0109V22.616H33.3479V14.2679ZM25.0109 30.9641H33.3479V39.3121H25.0109V30.9641ZM41.6849 47.6602H50.0218V56.0083H41.6849V47.6602Z" fill="#31559E"/>
<path d="M61.36 25.4709C61.3266 25.2539 61.1182 25.1036 60.9098 25.137L60.1928 25.2455C59.976 25.2789 59.7176 25.1454 59.6342 24.945L58.5087 23.0333C58.3753 22.858 58.3753 22.5741 58.5004 22.3988L58.9589 21.7727C59.0923 21.5974 59.0506 21.347 58.8756 21.2218L57.5166 20.2283C57.3416 20.1031 57.0914 20.1365 56.9581 20.3118L56.5329 20.9045C56.3995 21.0798 56.1327 21.155 55.9243 21.0798L53.5232 20.4704C53.3065 20.437 53.098 20.2367 53.0647 20.028L52.948 19.26C52.9146 19.0429 52.7145 18.8926 52.4978 18.926L50.8387 19.1765C50.622 19.2099 50.4719 19.4102 50.5052 19.6273L50.622 20.3953C50.6553 20.6123 50.5219 20.8628 50.3218 20.9546L48.4377 22.0649C48.2626 22.1985 47.9791 22.1985 47.8041 22.0649L47.1371 21.5807C46.962 21.4472 46.7119 21.4889 46.5869 21.6642L45.5948 23.0166C45.4697 23.1919 45.5031 23.4423 45.6781 23.5759L46.3034 24.0267C46.4785 24.1603 46.5535 24.4274 46.4785 24.6361L45.8615 27.0571C45.8282 27.2741 45.6281 27.4745 45.4113 27.5079L44.6277 27.6247C44.4109 27.6581 44.2608 27.8585 44.2942 28.0755L44.5443 29.7368C44.5776 29.9539 44.7777 30.1041 44.9945 30.0707L45.7782 29.9539C45.9949 29.9205 46.245 30.054 46.3367 30.2544L47.4206 32.1077C47.5539 32.283 47.5539 32.5752 47.4206 32.7505L46.9453 33.4016C46.812 33.5769 46.8536 33.8274 47.0287 33.9609L48.3793 34.9544C48.5544 35.0796 48.8045 35.0462 48.9379 34.8709L49.3797 34.2698C49.5131 34.0945 49.7799 34.011 49.98 34.0945L52.4394 34.729C52.6562 34.7624 52.8563 34.9627 52.8896 35.1798L53.0063 35.9227C53.0397 36.1398 53.2398 36.2901 53.4565 36.2567L55.1156 36.0062C55.3323 35.9728 55.4824 35.7725 55.4491 35.5554L55.3323 34.8124C55.299 34.5954 55.4324 34.3449 55.6325 34.2531L57.5 33.1512C57.675 33.0259 57.9668 33.0176 58.1419 33.1512L58.7505 33.602C58.9339 33.7272 59.1757 33.6938 59.3091 33.5185L60.3012 32.1661C60.4346 31.9908 60.3929 31.7403 60.2178 31.6068L59.6592 31.1977C59.4842 31.0641 59.4091 30.797 59.4842 30.5883L60.1178 28.1507C60.1428 27.9336 60.3512 27.7333 60.568 27.6999L61.2849 27.5913C61.5017 27.558 61.6518 27.3576 61.6184 27.1405L61.36 25.4709ZM55.7409 27.1739C55.9743 28.7183 54.9155 30.1626 53.3732 30.3963C51.8308 30.63 50.3885 29.5698 50.1551 28.0254C49.9216 26.4811 50.9721 25.0368 52.5228 24.8031C54.0651 24.5693 55.5074 25.6295 55.7409 27.1739Z" fill="#DE3228"/>
<path d="M73.9991 10.8117C74.0158 10.5362 73.8074 10.2858 73.5239 10.2691L72.5902 10.2023C72.3067 10.1773 72.0316 9.94351 71.9732 9.66802L71.0979 6.97159C70.9811 6.7128 71.0645 6.35383 71.2729 6.17017L72.0233 5.51902C72.2317 5.33536 72.2567 5.00979 72.0733 4.80108L70.656 3.18156C70.4726 2.97285 70.1475 2.94781 69.939 3.13147L69.2387 3.74923C69.022 3.93288 68.6635 3.95793 68.43 3.79931L65.6038 2.36344C65.337 2.26327 65.1369 1.95439 65.1619 1.6789L65.2286 0.685478C65.2453 0.409992 65.0369 0.159549 64.7534 0.142853L62.6108 0.000935344C62.3357 -0.0157608 62.0856 0.192941 62.0689 0.476776L62.0022 1.4702C61.9856 1.74569 61.7438 2.02952 61.477 2.08796L58.8092 2.95616C58.5507 3.07303 58.2006 2.98955 58.0088 2.78085L57.3168 1.98778C57.1334 1.77908 56.8166 1.75403 56.5999 1.93769L54.9825 3.35687C54.7741 3.54052 54.7491 3.8661 54.9325 4.0748L55.5828 4.81778C55.7662 5.02648 55.7912 5.3938 55.6328 5.62754L54.1905 8.48259C54.0904 8.74973 53.782 8.94174 53.4985 8.92504L52.4897 8.85825C52.2146 8.84156 51.9728 9.05861 51.9478 9.3341L51.8061 11.4796C51.7894 11.755 51.9979 12.0055 52.273 12.0222L53.2818 12.089C53.5652 12.1057 53.8403 12.3478 53.8987 12.6232L54.7407 15.2445C54.8574 15.5033 54.7741 15.8623 54.5573 16.046L53.782 16.7305C53.5652 16.9142 53.5485 17.2397 53.7319 17.4484L55.1492 19.068C55.3326 19.2767 55.6578 19.3017 55.8662 19.1181L56.5832 18.4919C56.8 18.3083 57.1584 18.2832 57.3835 18.4419L60.2765 19.9195C60.5349 20.0196 60.735 20.3285 60.7183 20.604L60.6516 21.5557C60.635 21.8312 60.8434 22.0816 61.1268 22.0983L63.2778 22.2402C63.5529 22.2569 63.7947 22.0482 63.8197 21.7644L63.8864 20.8127C63.9031 20.5372 64.1448 20.2534 64.42 20.195L67.0628 19.3434C67.3129 19.2349 67.6797 19.3101 67.8631 19.5188L68.4967 20.2534C68.6885 20.4621 69.0053 20.4871 69.2137 20.3035L70.8311 18.8843C71.0395 18.7006 71.0645 18.3751 70.8811 18.1664L70.2975 17.4902C70.1141 17.2815 70.0891 16.9142 70.2475 16.6804L71.7148 13.8087C71.8148 13.5415 72.115 13.3495 72.3984 13.3662L73.3322 13.4247C73.6073 13.4414 73.8574 13.2327 73.8741 12.9488L73.9991 10.8117ZM66.5042 11.3627C66.3708 13.3579 64.645 14.8689 62.6525 14.7353C60.66 14.6017 59.151 12.8737 59.2927 10.8785C59.4261 8.8833 61.1435 7.3723 63.1444 7.50586C65.1369 7.63943 66.6376 9.36749 66.5042 11.3627Z" fill="#DE3228"/>
</svg>
