<svg width="78" height="50" viewBox="0 0 78 50" fill="none" xmlns="http://www.w3.org/2000/svg">
<path d="M49.3337 0.119141H7.09808C7.09808 0.119141 0.019043 0.119141 0.019043 7.23524V42.7838C0.019043 49.8999 7.09808 49.8999 7.09808 49.8999H49.3337C49.3337 49.8999 56.4287 49.8999 56.4287 42.7838V7.23524C56.4287 0.119141 49.3337 0.119141 49.3337 0.119141ZM16.9769 40.7894V7.45862L45.7544 24.132L16.9769 40.7894ZM60.5647 14.0003V36.1145L77.9999 49.868V0.119141L60.5647 14.0003Z" fill="#31559E"/>
<path d="M37.4609 25.049C38.1382 24.6664 38.1385 23.6909 37.4613 23.3079L21.4171 14.2337C20.7505 13.8566 19.9248 14.3382 19.9248 15.1041V33.241C19.9248 34.0067 20.75 34.4883 21.4166 34.1117L37.4609 25.049Z" fill="#DE3228"/>
</svg>
