<svg width="68" height="68" viewBox="0 0 68 68" fill="none" xmlns="http://www.w3.org/2000/svg">
<path d="M59.9047 32.3809H35.6189V24.2857C35.6189 23.3908 34.894 22.6666 33.9999 22.6666C33.1058 22.6666 32.3808 23.3908 32.3808 24.2857V32.3809H8.09512C7.201 32.3809 6.47607 33.1051 6.47607 34V43.7142C6.47607 44.6091 7.201 45.3333 8.09512 45.3333C8.98924 45.3333 9.71417 44.6091 9.71417 43.7142V35.619H32.3808V43.7142C32.3808 44.6091 33.1058 45.3333 33.9999 45.3333C34.894 45.3333 35.6189 44.6091 35.6189 43.7142V35.619H58.2856V43.7142C58.2856 44.6091 59.0105 45.3333 59.9047 45.3333C60.7988 45.3333 61.5237 44.6091 61.5237 43.7142V34C61.5237 33.1051 60.7988 32.3809 59.9047 32.3809Z" fill="#31559E"/>
<path d="M40.4757 51.8094H27.5233C26.6292 51.8094 25.9043 52.5336 25.9043 53.4285V66.3809C25.9043 67.2758 26.6292 67.9999 27.5233 67.9999H40.4757C41.3698 67.9999 42.0948 67.2758 42.0948 66.3809V53.4285C42.0948 52.5336 41.3698 51.8094 40.4757 51.8094Z" fill="#31559E"/>
<path d="M40.4757 0H27.5233C26.6292 0 25.9043 0.724151 25.9043 1.61905V14.5714C25.9043 15.4663 26.6292 16.1905 27.5233 16.1905H40.4757C41.3698 16.1905 42.0948 15.4663 42.0948 14.5714V1.61905C42.0948 0.724151 41.3698 0 40.4757 0Z" fill="#DE3228"/>
<path d="M66.381 51.8094H53.4286C52.5345 51.8094 51.8096 52.5336 51.8096 53.4285V66.3809C51.8096 67.2758 52.5345 67.9999 53.4286 67.9999H66.381C67.2751 67.9999 68 67.2758 68 66.3809V53.4285C68 52.5336 67.2751 51.8094 66.381 51.8094Z" fill="#31559E"/>
<path d="M14.5714 51.8094H1.61905C0.724929 51.8094 0 52.5336 0 53.4285V66.3809C0 67.2758 0.724929 67.9999 1.61905 67.9999H14.5714C15.4655 67.9999 16.1905 67.2758 16.1905 66.3809V53.4285C16.1905 52.5336 15.4655 51.8094 14.5714 51.8094Z" fill="#31559E"/>
</svg>
