<svg width="80" height="59" viewBox="0 0 80 59" fill="none" xmlns="http://www.w3.org/2000/svg">
<path d="M54.3175 17.1781L40.5467 0.230836C40.4279 0.0848104 40.2502 0 40.0616 0C39.8743 0 39.6971 0.0848104 39.5778 0.230836L25.807 17.1781C25.654 17.3662 25.6235 17.6238 25.7263 17.8425C25.8298 18.0619 26.0495 18.199 26.2914 18.199H31.2502V32.5637C31.2502 32.9105 31.5613 33.2645 31.9067 33.2645H48.141C48.4857 33.2645 48.7498 32.9105 48.7498 32.5637V18.1996H53.8336C54.0749 18.1996 54.2946 18.0619 54.3981 17.8432C54.5022 17.6238 54.4705 17.3668 54.3175 17.1781Z" fill="#31559E"/>
<path d="M67.8298 45.8029C66.6235 45.8029 65.6425 46.7887 65.6425 47.9996C65.6425 49.2106 66.6235 50.1964 67.8298 50.1964C69.0362 50.1964 70.0178 49.2106 70.0178 47.9996C70.0178 46.7887 69.0362 45.8029 67.8298 45.8029Z" fill="#31559E"/>
<path d="M77.9448 40.1557C77.8984 40.0869 77.8438 40.0224 77.7822 39.9619L77.6762 39.8592C77.4317 39.592 77.174 39.337 76.8978 39.1023L65.3302 27.8513C63.9029 26.4829 62.2444 25.7311 60.661 25.7311H51.8768C51.1879 25.7311 50.6273 26.2922 50.6267 26.9847C50.626 27.6779 51.1848 28.2422 51.8749 28.2422H60.6591C61.9264 28.2422 63.0483 29.1349 63.5975 29.6617L71.1581 37.0159L8.86667 36.9993L16.421 29.6591C16.9765 29.1267 18.099 28.2422 19.3657 28.2422H28.1448C28.8349 28.2422 29.3949 27.6804 29.3949 26.9867C29.3949 26.2935 28.8349 25.7311 28.1448 25.7311H19.3657C17.781 25.7311 16.1219 26.4752 14.6889 27.8494L3.23111 38.9894C2.87683 39.2808 2.55111 39.6016 2.24698 39.9447L2.24317 39.9459C2.2419 39.9472 2.23365 39.9498 2.23175 39.951C0.852699 41.5057 0 43.5462 0 45.7863V50.1805C0 55.0261 3.93206 58.9751 8.75619 58.9751L71.2489 59C76.073 59 80 55.0427 80 50.197V45.8029C80 43.6539 79.2248 41.6842 77.9448 40.1557ZM10.3505 50.8079C8.8 50.8079 7.53778 49.5409 7.53778 47.9831C7.53778 46.4252 8.79936 45.1582 10.3505 45.1582C11.9016 45.1582 13.1632 46.4252 13.1632 47.9831C13.1625 49.5409 11.901 50.8079 10.3505 50.8079ZM70.0051 51.443L51.2489 51.4265C49.8737 51.4265 48.7498 50.2971 48.7498 48.9153V47.0227C48.7498 45.6416 49.8756 44.5116 51.2508 44.5116L70.0038 44.5282C71.379 44.5282 72.4997 45.6575 72.4997 47.0393V48.9319H72.5003C72.5003 50.3131 71.3803 51.443 70.0051 51.443Z" fill="#31559E"/>
</svg>
