<svg width="50" height="56" viewBox="0 0 50 56" fill="none" xmlns="http://www.w3.org/2000/svg">
<path d="M25 12.4444C11.1937 12.4444 0 9.66 0 6.22222C0 2.78444 11.1937 0 25 0C38.8063 0 50 2.8 50 6.22222C50 9.64444 38.8063 12.4444 25 12.4444ZM0 49.7778C0 53.2156 11.1937 56 25 56C38.8063 56 50 53.2156 50 49.7778V37.9244C42.3906 40.7742 29.9406 41.0916 25 41.0916C20.0594 41.0916 7.60938 40.7804 0 37.9244V49.7778ZM0 31.1111C1.85312 32.4956 10.5844 34.8693 25 34.8693C39.4156 34.8693 48.1469 32.4956 50 31.1111V14.6222C43.2656 17.9822 32.5 18.6667 25 18.6667C17.5 18.6667 6.73438 17.9822 0 14.6222V31.1111Z" fill="#31559E"/>
</svg>
