<svg width="35" height="57" viewBox="0 0 35 57" fill="none" xmlns="http://www.w3.org/2000/svg">
<path d="M32.375 0H2.625C1.225 0 0 1.24688 0 2.67188V57H35V2.67188C35 1.24688 33.775 0 32.375 0ZM17.5 50.7656C14.875 50.7656 12.6 48.6281 12.6 45.7781C12.6 42.9281 14.875 40.9688 17.5 40.9688C20.125 40.9688 22.4 43.1063 22.4 45.9562C22.4 48.8062 20.125 50.7656 17.5 50.7656ZM26.25 36.6937H8.75V33.8438H26.25V36.6937ZM28 17.1H7V14.25H28V17.1ZM28 9.975H7V7.125H28V9.975Z" fill="#31559E"/>
<path d="M17.5 48.0938C18.6598 48.0938 19.6 47.1368 19.6 45.9563C19.6 44.7758 18.6598 43.8188 17.5 43.8188C16.3402 43.8188 15.4 44.7758 15.4 45.9563C15.4 47.1368 16.3402 48.0938 17.5 48.0938Z" fill="#31559E"/>
</svg>
