<svg width="65" height="76" viewBox="0 0 65 76" fill="none" xmlns="http://www.w3.org/2000/svg">
<path d="M26.9332 27.3867H46.635C48.95 27.3867 50.8235 25.7399 50.8235 23.7113V3.67543C50.8235 1.64678 48.95 0 46.635 0H4.18856C1.87351 0 0 1.64678 0 3.67543V23.7113C0 25.7399 1.87351 27.3867 4.18856 27.3867H21.2411L20.6802 33.6755L26.9332 27.3867ZM7.55372 7.10026H43.2698V9.21243H7.55372V7.10026ZM7.55372 12.4105H43.2698V14.5227H7.55372V12.4105ZM7.55372 19.8211V17.7089H25.8235V19.8211H7.55372ZM17.3867 35.203C23.7113 35.203 28.8306 40.3223 28.8306 46.6469C28.8306 52.9715 23.7113 58.0908 17.3867 58.0908C11.0621 58.0908 5.94274 52.9715 5.94274 46.6469C5.94274 40.3223 11.0621 35.203 17.3867 35.203ZM24.0096 59.1768H10.7638C4.82101 59.1768 0 63.9978 0 69.9405V75.1673H13.6158L15.4893 65.0002H15.549L13.7113 62.2078H21.0621L19.2244 65.0002H19.2841L21.1456 75.1673H34.7614V69.9405C34.7734 63.9978 29.9523 59.1768 24.0096 59.1768Z" fill="#31559E"/>
<path d="M62.3633 36.0621H54.5828L54.9408 40.0001L51.0387 36.0621H38.0911C36.6472 36.0621 35.4658 35.0239 35.4658 33.759V28.938H48.1986C50.6926 28.938 52.7212 27.1599 52.7212 24.9762V17.7446H62.3752C63.8191 17.7446 65.0005 18.7709 65.0005 20.0477V33.7709C64.9886 35.0358 63.8191 36.0621 62.3633 36.0621ZM50.2391 43.1385C45.6687 43.4249 41.9456 47.1481 41.6592 51.7185C41.325 57.0526 45.5613 61.4798 50.8239 61.4798C50.9909 61.4798 51.158 61.4798 51.3251 61.4679H62.2797C62.411 61.4679 62.4468 61.3008 62.3275 61.2531C60.979 60.6922 60.0005 59.1767 60.0005 57.3867V52.4822V52.3032C60.0005 47.0287 55.5733 42.8044 50.2391 43.1385ZM56.1341 62.339C60.8955 62.339 64.7618 66.2054 64.7618 70.9667V75.1553H36.8739V70.9667C36.8739 66.2054 40.7403 62.339 45.5016 62.339H56.1341ZM55.8597 65.203C56.0625 64.8331 54.2487 63.6159 54.2487 63.6159L50.8119 73.8904L47.3752 63.6159C47.3752 63.6159 45.5613 64.8331 45.7642 65.203C45.8835 65.4059 48.4969 67.7806 48.4969 67.7806L46.7427 69.4751L50.8119 73.8904L54.8811 69.4751L53.1389 67.7806C53.1389 67.7806 55.7403 65.4059 55.8597 65.203Z" fill="#DE3228"/>
</svg>
