<svg width="72" height="72" viewBox="0 0 72 72" fill="none" xmlns="http://www.w3.org/2000/svg">
<path d="M70.4941 12.4394L60.3161 22.2404L49.7611 11.6855L59.9391 1.50745C61.8239 3.0153 64.0857 4.52315 65.5935 6.40797C67.1014 8.29279 68.9862 10.1776 70.4941 12.4394ZM4.14851 56.9211L1.50977 70.1148L15.0804 67.853L55.0386 27.5179L44.4836 16.9629L4.14851 56.9211Z" fill="#31559E"/>
<path d="M4.1466 14.7016L0 10.555L10.555 0L30.534 19.9791L19.9791 30.534L14.7016 25.2565L19.9791 19.9791L17.3403 17.3403L12.0628 22.6178L6.78534 17.3403L12.0628 12.0628L9.42408 9.42408L4.1466 14.7016ZM52.0209 41.466L41.466 52.0209L46.7435 57.2984L52.0209 52.0209L54.6597 54.6597L49.3822 59.9372L54.6597 65.2147L59.9372 59.9372L62.5759 62.5759L57.2984 67.8534L61.445 72L72 61.445L52.0209 41.466Z" fill="#DE3228"/>
</svg>
