<svg width="107" height="91" viewBox="0 0 107 91" fill="none" xmlns="http://www.w3.org/2000/svg">
<path d="M57.8945 53.9114L52.333 53.3092C51.5721 53.2268 50.9287 52.7265 50.6365 52.0193C50.6329 52.0109 50.6294 52.0024 50.626 51.994C50.3328 51.287 50.4338 50.4785 50.9136 49.8822L54.4204 45.5239C55.0816 44.7021 55.0174 43.5143 54.2716 42.7684L47.7072 36.204C46.9613 35.4581 45.7736 35.394 44.9517 36.0552L40.5915 39.5634C39.9967 40.042 39.1904 40.1436 38.4845 39.8531C38.4767 39.8499 38.469 39.8468 38.4613 39.8437C37.7516 39.5523 37.2494 38.9078 37.1668 38.145L36.5643 32.581C36.4508 31.5324 35.5656 30.7378 34.5108 30.7378H25.2273C24.1726 30.7378 23.2873 31.5324 23.1739 32.581L22.5714 38.145C22.4888 38.9076 21.9864 39.5523 21.2767 39.8437C21.269 39.8468 21.2612 39.8499 21.2537 39.8531C20.5478 40.1438 19.7415 40.042 19.1467 39.5634L14.7861 36.0552C13.9643 35.394 12.7765 35.4581 12.0308 36.204L5.4664 42.7684C4.72054 43.5143 4.65638 44.7021 5.31761 45.5239L8.82436 49.8822C9.30419 50.4787 9.40513 51.287 9.11193 51.994C9.10838 52.0024 9.10503 52.0109 9.10148 52.0193C8.80911 52.7265 8.16586 53.2268 7.40494 53.3092L1.84324 53.9114C0.794559 54.0249 0 54.9102 0 55.9649V65.2484C0 66.3032 0.794559 67.1884 1.84324 67.3019L7.40473 67.904C8.16565 67.9863 8.80911 68.4866 9.10127 69.1938C9.10482 69.2022 9.10817 69.2108 9.11172 69.2191C9.40492 69.9261 9.30398 70.7347 8.82416 71.3311L5.3174 75.6895C4.65617 76.5112 4.72033 77.6991 5.4662 78.445L12.0306 85.0094C12.7765 85.7552 13.9643 85.8194 14.7861 85.1582L19.1463 81.6499C19.7411 81.1712 20.5473 81.0696 21.2533 81.3603C21.261 81.3634 21.2688 81.3666 21.2765 81.3697C21.9862 81.661 22.4884 82.3055 22.5709 83.0683L23.1734 88.6323C23.2869 89.681 24.1722 90.4756 25.2269 90.4756H34.5104C35.5652 90.4756 36.4504 89.681 36.5639 88.6323L37.1664 83.0683C37.249 82.3057 37.7511 81.661 38.4609 81.3697C38.4686 81.3666 38.4763 81.3634 38.4838 81.3603C39.1898 81.0696 39.9961 81.1712 40.591 81.6499L44.9513 85.1582C45.773 85.8194 46.9609 85.7552 47.7067 85.0094L54.2712 78.445C55.017 77.6991 55.081 76.5112 54.42 75.6895L50.9132 71.3311C50.4334 70.7349 50.3324 69.9263 50.6256 69.2191C50.629 69.2108 50.6325 69.2024 50.6361 69.1938C50.9284 68.4866 51.5717 67.9863 52.3326 67.904L57.8941 67.3019C58.9426 67.1882 59.7374 66.303 59.7374 65.2484V55.9649C59.7378 54.9102 58.9432 54.0249 57.8945 53.9114ZM29.8689 69.9188C24.726 69.9188 20.5567 65.7496 20.5567 60.6067C20.5567 55.4638 24.726 51.2945 29.8689 51.2945C35.0118 51.2945 39.181 55.4638 39.181 60.6067C39.181 65.7496 35.0118 69.9188 29.8689 69.9188Z" fill="#31559E"/>
<path d="M106.053 44.6029L102.235 41.5879C101.627 41.1076 101.289 40.3714 101.289 39.5963C101.289 39.5881 101.289 39.58 101.289 39.5716C101.288 38.7948 101.626 38.0567 102.235 37.5754L106.053 34.5602C106.928 33.8697 107.237 32.6824 106.811 31.6532L105.134 27.6043C104.707 26.5749 103.649 25.9542 102.543 26.0842L97.7108 26.6518C96.9393 26.7425 96.1783 26.4595 95.6302 25.9092C95.6245 25.9034 95.6187 25.8975 95.6128 25.8919C95.0649 25.3435 94.7832 24.5841 94.8737 23.8144L95.4413 18.9829C95.5713 17.8765 94.9504 16.8182 93.9211 16.3919L89.8722 14.715C88.843 14.2887 87.6558 14.598 86.9653 15.4722L83.95 19.2899C83.4696 19.8982 82.7333 20.2357 81.9584 20.2362C81.9501 20.2362 81.9419 20.2362 81.9338 20.2362C81.1572 20.2374 80.419 19.8995 79.9375 19.2899L76.9223 15.4719C76.2318 14.5976 75.0444 14.2883 74.0151 14.7146L69.9663 16.3917C68.937 16.818 68.3161 17.8763 68.4461 18.9829L69.0137 23.8146C69.1044 24.586 68.8215 25.3469 68.2712 25.8952C68.2653 25.9011 68.2595 25.907 68.2536 25.9128C67.7053 26.4608 66.946 26.7425 66.1761 26.652L61.3446 26.0844C60.2381 25.9544 59.18 26.5753 58.7536 27.6045L57.0765 31.6534C56.6502 32.6826 56.9595 33.8701 57.8339 34.5606L61.6516 37.5756C62.26 38.056 62.5975 38.7921 62.5979 39.5672C62.5979 39.5756 62.5979 39.5837 62.5979 39.5919C62.5994 40.3687 62.2612 41.1068 61.6516 41.5881L57.8337 44.6033C56.9593 45.2938 56.65 46.481 57.0765 47.5103L58.7534 51.5592C59.1798 52.5884 60.2381 53.2093 61.3444 53.0793L66.1763 52.5117C66.9477 52.421 67.7086 52.704 68.257 53.2542C68.2628 53.2601 68.2685 53.2659 68.2743 53.2716C68.8223 53.8199 69.104 54.5792 69.0135 55.3491L68.4459 60.1808C68.3159 61.2874 68.9368 62.3455 69.9661 62.7718L74.0149 64.4489C75.0442 64.8752 76.2314 64.5659 76.9221 63.6915L79.9371 59.8738C80.4176 59.2654 81.1536 58.9279 81.9288 58.9275C81.9369 58.9275 81.945 58.9275 81.9534 58.9275C82.73 58.9261 83.4683 59.2642 83.9496 59.8738L86.9649 63.6917C87.6553 64.5661 88.8426 64.8754 89.872 64.4491L93.9209 62.772C94.9501 62.3457 95.571 61.2874 95.4411 60.181L94.8734 55.3493C94.7827 54.5779 95.0657 53.8168 95.616 53.2686C95.6218 53.2628 95.6277 53.2569 95.6335 53.2513C96.1819 52.7036 96.9411 52.4216 97.711 52.5121L102.543 53.0797C103.649 53.2097 104.707 52.5888 105.134 51.5596L106.811 47.5107C107.237 46.4808 106.928 45.2934 106.053 44.6029ZM84.419 46.7949C80.5352 48.4037 76.0826 46.5594 74.4739 42.6754C72.8651 38.7915 74.7096 34.3391 78.5934 32.7303C82.4771 31.1215 86.9297 32.9658 88.5385 36.8498C90.1471 40.7336 88.3028 45.1864 84.419 46.7949Z" fill="#DE3228"/>
<path d="M59.4898 16.2052L57.4327 14.5808C57.1051 14.3221 56.9231 13.9254 56.9229 13.5078C56.9229 13.5034 56.9229 13.499 56.9229 13.4945C56.9222 13.076 57.1043 12.6783 57.4327 12.419L59.4898 10.7945C59.9609 10.4224 60.1275 9.78278 59.8978 9.22825L58.9942 7.04684C58.7645 6.49219 58.1943 6.15778 57.5983 6.22782L54.995 6.53363C54.5793 6.58249 54.1694 6.43004 53.874 6.13358C53.871 6.13042 53.8679 6.12727 53.8647 6.12423C53.5695 5.82878 53.4177 5.41961 53.4664 5.00492L53.7723 2.40184C53.8423 1.80576 53.5078 1.23558 52.9532 1.00588L50.7718 0.10242C50.2173 -0.127274 49.5776 0.0393669 49.2056 0.510352L47.5811 2.56724C47.3222 2.895 46.9255 3.07684 46.508 3.07707C46.5035 3.07707 46.4991 3.07707 46.4947 3.07707C46.0763 3.07775 45.6787 2.89568 45.4192 2.56724L43.7947 0.51024C43.4227 0.0391418 42.7829 -0.127499 42.2284 0.102195L40.0469 1.00577C39.4924 1.23546 39.1579 1.80565 39.2279 2.40184L39.5337 5.00504C39.5826 5.42062 39.4301 5.83058 39.1337 6.12603C39.1305 6.12919 39.1274 6.13234 39.1242 6.13549C38.8288 6.43072 38.4197 6.58249 38.0049 6.53374L35.4018 6.22793C34.8056 6.1579 34.2355 6.49242 34.0059 7.04695L33.1023 9.22837C32.8726 9.7829 33.0392 10.4227 33.5103 10.7947L35.5672 12.4191C35.895 12.6779 36.0768 13.0745 36.077 13.4921C36.077 13.4966 36.077 13.501 36.077 13.5054C36.0778 13.9239 35.8957 14.3216 35.5672 14.5809L33.5102 16.2054C33.0391 16.5774 32.8725 17.2171 33.1023 17.7716L34.0057 19.9531C34.2354 20.5076 34.8056 20.8421 35.4017 20.7721L38.005 20.4663C38.4206 20.4174 38.8306 20.5698 39.126 20.8663C39.1292 20.8695 39.1322 20.8726 39.1354 20.8757C39.4306 21.1711 39.5824 21.5802 39.5336 21.995L39.2278 24.5982C39.1578 25.1944 39.4923 25.7644 40.0468 25.9941L42.2283 26.8977C42.7828 27.1274 43.4225 26.9607 43.7946 26.4896L45.419 24.4328C45.6779 24.105 46.0744 23.9232 46.492 23.9229C46.4964 23.9229 46.5008 23.9229 46.5053 23.9229C46.9237 23.9221 47.3215 24.1043 47.5808 24.4328L49.2054 26.4898C49.5774 26.9609 50.217 27.1275 50.7717 26.8978L52.9531 25.9942C53.5077 25.7645 53.8422 25.1944 53.7721 24.5983L53.4663 21.9951C53.4175 21.5795 53.5699 21.1694 53.8664 20.8741C53.8695 20.8709 53.8727 20.8678 53.8758 20.8647C54.1713 20.5696 54.5804 20.4177 54.9952 20.4665L57.5984 20.7723C58.1946 20.8423 58.7646 20.5078 58.9943 19.9533L59.8979 17.7719C60.1274 17.217 59.9609 16.5772 59.4898 16.2052ZM47.8337 17.3862C45.7413 18.253 43.3423 17.2593 42.4755 15.1667C41.6088 13.0742 42.6025 10.6753 44.695 9.80857C46.7875 8.94181 49.1865 9.93546 50.0532 12.028C50.9199 14.1205 49.9262 16.5196 47.8337 17.3862Z" fill="#31559E"/>
</svg>
