<svg width="76" height="89" viewBox="0 0 76 89" fill="none" xmlns="http://www.w3.org/2000/svg">
<path d="M75.8726 63.3746C75.6687 64.1292 75.2482 64.7707 74.662 65.2234C74.6492 65.236 74.6365 65.2486 74.6237 65.2612C74.611 65.2737 74.5855 65.2863 74.5728 65.2989C74.4836 65.3618 74.3816 65.4247 74.2797 65.475L73.8464 65.7139L73.7827 65.7517L72.7632 66.3176L69.3353 68.2293C69.3226 68.2419 69.2971 68.2419 69.2844 68.2544L66.5573 69.7762L60.6063 73.0839H60.5936L56.6559 75.2723H56.6432L49.9021 79.0328C48.4239 79.8503 46.6781 80.1898 44.996 79.9886L38.4333 79.1837H38.4205L35.5661 78.8315H35.5533L31.106 78.2782L27.6526 77.8506C26.6586 77.7248 25.6519 77.7625 24.6707 77.9386C23.6512 78.1273 22.6445 78.4794 21.7398 78.9699C21.7143 78.9825 21.6888 78.9951 21.6633 79.0076L20.4272 79.6994C20.389 79.7245 20.3253 79.7119 20.3125 79.6616L20.2616 79.5736L11.3159 63.9029C11.2904 63.8651 11.2777 63.84 11.2777 63.84L12.0805 63.5004L11.4943 63.4501L13.6606 62.2427L15.0624 61.463L24.2884 56.3316C25.7666 55.5141 27.5124 55.1746 29.1945 55.3758L51.7753 58.1678H51.7881C53.7123 58.3816 55.2287 60.0921 54.7827 62.8841C54.6298 63.8526 54.5278 64.2299 54.2857 64.6323C54.2602 64.6826 54.222 64.7329 54.1965 64.7707C54.1838 64.7958 54.171 64.8084 54.1583 64.8336C54.1455 64.8587 54.1328 64.8713 54.1201 64.8964C54.0946 64.9342 54.0563 64.9845 54.0181 65.0222C53.9799 65.0599 53.9544 65.1102 53.9162 65.148C53.8907 65.1857 53.8524 65.2109 53.827 65.2486C53.827 65.2486 53.827 65.2486 53.8142 65.2612C53.8015 65.2737 53.7887 65.2863 53.776 65.2989C53.725 65.3618 53.6613 65.4121 53.5976 65.4624C53.5721 65.4875 53.5594 65.5001 53.5339 65.5253C53.5084 65.5504 53.4701 65.5756 53.4319 65.6007C53.3937 65.6259 53.3555 65.651 53.33 65.6762L52.6164 66.0787C52.0684 66.305 51.4695 66.3931 50.8578 66.3302L45.6841 65.7517C45.6714 65.7517 45.6459 65.7517 45.6331 65.7517C45.6204 65.7517 45.6076 65.7517 45.5949 65.7517C45.5694 65.7517 45.5439 65.7517 45.5312 65.7517H45.5184H45.5057C45.493 65.7517 45.4802 65.7517 45.4547 65.7517C45.442 65.7517 45.4292 65.7517 45.4165 65.7642C45.391 65.7642 45.3783 65.7768 45.3528 65.7768C45.3273 65.7768 45.3145 65.7894 45.3018 65.7894C45.2891 65.7894 45.2891 65.7894 45.2763 65.802C45.2636 65.802 45.2636 65.8145 45.2508 65.8145C45.2381 65.8145 45.2253 65.8271 45.2126 65.8271C45.2126 65.8271 45.1999 65.8271 45.1999 65.8397C45.1999 65.8397 45.1871 65.8397 45.1871 65.8523C45.1871 65.8523 45.1871 65.8523 45.1744 65.8523C45.1616 65.8523 45.1616 65.8649 45.1489 65.8649C45.1361 65.8774 45.1234 65.8774 45.1107 65.89C45.0979 65.9026 45.0724 65.9152 45.0597 65.9277C45.0469 65.9403 45.0342 65.9403 45.0215 65.9529C45.0087 65.9655 45.0087 65.9655 44.996 65.978C44.996 65.978 44.996 65.978 44.9832 65.9906L44.9705 66.0032L44.9577 66.0158C44.945 66.0284 44.945 66.0283 44.945 66.0409C44.945 66.0409 44.9323 66.0535 44.9323 66.0661C44.9323 66.0661 44.9323 66.0661 44.9323 66.0787C44.9195 66.0912 44.9195 66.1038 44.9068 66.1164C44.9068 66.1164 44.9068 66.1164 44.9068 66.129C44.894 66.1415 44.894 66.1541 44.8813 66.1793C44.8303 66.2799 44.7921 66.3805 44.7793 66.5063V66.5188C44.7284 66.9968 45.0852 67.4118 45.5567 67.4747L50.7304 68.0532C50.9343 68.0784 51.1382 68.091 51.3293 68.091C53.1261 68.0658 53.3682 67.6759 54.3494 67.1477L54.9611 66.8081L55.8404 66.3176L57.4715 65.3995L57.4842 65.3869L59.1918 64.4311L59.2046 64.4185L70.1636 58.2559C70.6734 57.9666 71.2213 57.8283 71.7693 57.8031C71.7948 57.8031 71.8202 57.8031 71.8457 57.8031C72.1898 57.8031 72.5339 57.8534 72.8779 57.954C73.3112 58.0798 73.7062 58.281 74.063 58.5326C74.0758 58.5326 74.0758 58.5451 74.0885 58.5451C74.1013 58.5577 74.1268 58.5703 74.1395 58.5829C74.4708 58.847 74.7512 59.174 74.9805 59.5639L75.6177 60.6706C75.9873 61.4755 76.1147 62.4691 75.8726 63.3746ZM20.1214 82.8687L19.5225 81.8248L19.4715 81.7368L19.2549 81.3595L19.0765 81.0576L18.6432 80.303L18.6177 80.2527L9.68477 64.6197L9.6338 64.5317L9.20054 63.7645L9.18779 63.7394C9.18779 63.7268 9.17505 63.7268 9.17505 63.7142C9.17505 63.7142 9.17505 63.7142 9.17505 63.7016C9.17505 63.7016 9.17505 63.7016 9.17505 63.6891L8.76727 62.9848L8.32126 62.1924C8.07914 61.7774 7.54393 61.6265 7.11066 61.8654L0 65.8271L12.6794 88.0126L19.7901 84.0761C19.994 83.9629 20.1469 83.7742 20.2106 83.5479C20.2616 83.3089 20.2361 83.0825 20.1214 82.8687Z" fill="#31559E"/>
<path d="M57.5993 11.8977V13.7339C55.5477 13.0799 53.4068 12.7403 51.2023 12.7403C49.0105 12.7403 46.8696 13.0673 44.8052 13.7339V11.8977C44.8052 9.58354 46.0668 7.55867 47.9528 6.46448C48.3733 6.87952 48.8575 7.19394 49.4055 7.42032C49.9789 7.65928 50.5779 7.77247 51.2023 7.77247C51.8267 7.77247 52.4256 7.64671 52.9991 7.42032C53.547 7.19394 54.0312 6.86694 54.4518 6.46448C54.9233 6.74117 55.3438 7.06817 55.7261 7.44548C56.8857 8.57739 57.5993 10.1621 57.5993 11.8977ZM51.215 0C49.4055 0 47.94 1.44633 47.94 3.23224C47.94 4.32643 48.488 5.28226 49.3163 5.87337C49.8515 6.25068 50.5014 6.46448 51.215 6.46448C51.9159 6.46448 52.5785 6.25068 53.1137 5.87337C53.9548 5.28226 54.49 4.32643 54.49 3.23224C54.49 1.44633 53.0245 0 51.215 0ZM40.4471 13.6836C39.1982 12.4511 37.5671 11.8348 35.9233 11.8348C35.3881 11.8348 34.8401 11.8977 34.3176 12.036C34.3176 12.6145 34.2029 13.1931 33.9863 13.7213C33.7569 14.2873 33.4129 14.7903 32.9796 15.2305C32.5463 15.6581 32.0239 15.9977 31.4504 16.2241C30.9025 16.4379 30.329 16.5511 29.7429 16.5511C29.1949 18.6388 29.7556 20.953 31.4122 22.6005L32.7247 23.896C33.706 21.9969 34.993 20.2613 36.5349 18.7395C38.0769 17.2177 39.8354 15.9474 41.7596 14.979L40.4471 13.6836ZM32.0366 9.73446C31.3995 9.10562 30.5584 8.7912 29.7174 8.7912C28.8763 8.7912 28.0353 9.10562 27.3981 9.73446C26.1238 10.9921 26.1238 13.0422 27.3981 14.3124C28.0353 14.9413 28.8763 15.2557 29.7174 15.2557C29.8958 15.2557 30.0869 15.2431 30.2653 15.2054C30.9152 15.0922 31.5269 14.8029 32.0239 14.2998C32.5209 13.8093 32.8267 13.1931 32.9414 12.5642C33.1198 11.5707 32.8139 10.5016 32.0366 9.73446ZM72.6872 16.5637C72.101 16.5637 71.5148 16.4505 70.9796 16.2367C70.4062 16.0103 69.8964 15.6707 69.4504 15.2431C69.0172 14.8155 68.6731 14.2998 68.4437 13.7339C68.2271 13.1931 68.1124 12.6271 68.1124 12.0486C67.5899 11.9102 67.042 11.8474 66.5068 11.8474C64.8756 11.8474 63.2318 12.4636 61.983 13.6962L60.6577 14.979C62.5819 15.9474 64.3404 17.2177 65.8824 18.7395C67.4243 20.2613 68.7113 21.9969 69.6926 23.896L71.0051 22.6005C72.6744 20.9781 73.2224 18.6514 72.6872 16.5637ZM75.0192 9.73446C74.382 9.10562 73.541 8.7912 72.6999 8.7912C71.8589 8.7912 71.0178 9.10562 70.3807 9.73446C69.6033 10.5016 69.2975 11.5707 69.4632 12.5642C69.5779 13.2057 69.8709 13.8093 70.3807 14.2998C70.8777 14.7903 71.5021 15.0922 72.1392 15.2054C72.3176 15.2305 72.5088 15.2557 72.6872 15.2557C73.5282 15.2557 74.3693 14.9413 75.0064 14.3124C76.2935 13.0422 76.2935 10.9921 75.0192 9.73446Z" fill="#31559E"/>
<path d="M70.4822 30.5869C70.4694 30.4988 70.4439 30.4108 70.4184 30.3227C70.2528 29.9077 69.8323 29.6184 69.3608 29.6184C69.3225 29.6184 69.2971 29.6184 69.2588 29.6184C69.1569 29.631 69.0422 29.631 68.9403 29.631C68.061 29.631 67.2072 29.3166 66.5445 28.7632C66.226 28.4991 65.9584 28.1721 65.7417 27.8074C65.6653 27.6816 65.6016 27.5433 65.5378 27.3923C65.3467 26.9396 65.2575 26.4742 65.2575 26.0215C65.2575 24.9524 65.7417 23.9086 66.5828 23.2168C66.9651 22.9024 67.0925 22.3742 66.9141 21.934C66.8759 21.846 66.8249 21.7579 66.7739 21.6825C65.678 20.2361 64.3782 18.9533 62.9128 17.8717C62.8363 17.8088 62.7471 17.7585 62.6579 17.7334C62.5177 17.683 62.3775 17.6579 62.2374 17.6579C61.906 17.6579 61.5875 17.7962 61.3581 18.0603C60.6572 18.8904 59.6123 19.3683 58.5164 19.3683C58.3635 19.3683 58.1978 19.3558 58.0449 19.3432C57.9047 19.3306 57.7518 19.2929 57.6116 19.2551C57.446 19.2174 57.2803 19.1545 57.1274 19.0916C56.9872 19.0288 56.847 18.9659 56.7068 18.8904C55.5472 18.2364 54.8591 17.0165 54.8591 15.7336C54.8591 15.633 54.8591 15.5198 54.8718 15.4192C54.9228 14.9161 54.617 14.4508 54.1582 14.2747C54.0818 14.237 53.9926 14.2244 53.8906 14.2118C53.0113 14.0987 52.1193 14.0358 51.2146 14.0358C50.3098 14.0358 49.405 14.0987 48.5385 14.2118C48.4493 14.2244 48.3601 14.2496 48.2709 14.2747C47.8121 14.4508 47.5191 14.9161 47.5573 15.4192C47.6847 16.8027 46.9838 18.1861 45.7223 18.8904C45.5948 18.9659 45.4547 19.0288 45.3018 19.0916C45.1361 19.1545 44.9832 19.2048 44.8175 19.2551C44.7538 19.2677 44.6773 19.2929 44.6136 19.3055C44.5372 19.318 44.4607 19.3306 44.3842 19.3432C44.2313 19.3683 44.0657 19.3683 43.9128 19.3683C42.8296 19.3683 41.7719 18.8904 41.071 18.0603C40.8417 17.7962 40.5231 17.6579 40.1918 17.6579C40.0516 17.6579 39.9114 17.683 39.7712 17.7334C39.682 17.7711 39.5928 17.8214 39.5164 17.8717C38.0509 18.9533 36.7511 20.2361 35.6552 21.6825C35.5915 21.7579 35.5405 21.846 35.515 21.934C35.3366 22.3742 35.4513 22.8898 35.8464 23.2168C37.0569 24.2104 37.5284 25.8957 36.8913 27.3923C36.8276 27.5307 36.7639 27.669 36.6874 27.8074C36.4708 28.1721 36.2032 28.4991 35.8846 28.7632C35.7699 28.8638 35.6425 28.9519 35.515 29.0399C34.9161 29.4298 34.2152 29.631 33.4889 29.631C33.3869 29.631 33.2722 29.631 33.1703 29.6184C33.1321 29.6184 33.1066 29.6184 33.0684 29.6184C32.5969 29.6184 32.1763 29.9077 32.0107 30.3227C31.9724 30.3982 31.9597 30.4862 31.947 30.5869C31.8323 31.4547 31.7686 32.335 31.7686 33.228C31.7686 34.1209 31.8323 35.0139 31.947 35.8691C31.9597 35.9572 31.9852 36.0452 32.0107 36.1332C32.1763 36.5483 32.5969 36.8375 33.0684 36.8375C33.1066 36.8375 33.1321 36.8375 33.1703 36.8375C33.2722 36.825 33.3869 36.825 33.4889 36.825C34.9288 36.825 36.3051 37.6676 36.8913 39.0636C37.5157 40.5603 37.0442 42.2581 35.8464 43.2391C35.4641 43.5536 35.3366 44.0818 35.515 44.522C35.5533 44.61 35.6042 44.698 35.6552 44.7735C36.7511 46.2198 38.0509 47.5027 39.5164 48.5843C39.5928 48.6472 39.682 48.6975 39.7712 48.7226C39.9114 48.7729 40.0516 48.7981 40.1918 48.7981C40.5231 48.7981 40.8417 48.6597 41.071 48.3956C41.7719 47.5656 42.8168 47.0876 43.9128 47.0876C44.3842 47.0876 44.8557 47.1757 45.3018 47.3643C46.8182 47.9806 47.6975 49.5024 47.5573 51.0493C47.5063 51.5524 47.8121 52.0178 48.2709 52.1938C48.3474 52.2316 48.4366 52.2441 48.5385 52.2567C49.4178 52.3825 50.3098 52.4328 51.2146 52.4328C52.1193 52.4328 53.0241 52.3699 53.8906 52.2567C53.9798 52.2441 54.069 52.219 54.1582 52.1938C54.617 52.0178 54.9101 51.5524 54.8718 51.0493C54.7317 49.515 55.6109 47.9932 57.1274 47.3643C57.5861 47.1757 58.0576 47.0876 58.5164 47.0876C59.5995 47.0876 60.6572 47.5656 61.3581 48.3956C61.5875 48.6597 61.906 48.7981 62.2374 48.7981C62.3775 48.7981 62.5177 48.7729 62.6579 48.7226C62.7471 48.6849 62.8363 48.6346 62.9128 48.5843C64.3782 47.5027 65.678 46.2198 66.7739 44.7735C66.8376 44.698 66.8886 44.61 66.9141 44.522C67.0925 44.0818 66.9778 43.5661 66.5828 43.2391C65.3722 42.2456 64.9007 40.5603 65.5378 39.0636C66.124 37.6676 67.5003 36.825 68.9403 36.825C69.0422 36.825 69.1569 36.825 69.2588 36.8375C69.2971 36.8375 69.3225 36.8375 69.3608 36.8375C69.8323 36.8375 70.2528 36.5483 70.4184 36.1332C70.4567 36.0578 70.4694 35.9697 70.4822 35.8691C70.6096 35.0013 70.6606 34.1209 70.6606 33.228C70.6733 32.335 70.6096 31.4547 70.4822 30.5869ZM51.2146 41.579C46.5506 41.579 42.7531 37.8311 42.7531 33.228C42.7531 28.6249 46.5506 24.877 51.2146 24.877C55.8785 24.877 59.676 28.6249 59.676 33.228C59.676 37.8311 55.8785 41.579 51.2146 41.579Z" fill="#DE3228"/>
</svg>
