<svg width="68" height="78" viewBox="0 0 68 78" fill="none" xmlns="http://www.w3.org/2000/svg">
<path d="M63.905 21.0266C61.8674 15.2655 58.0972 10.1087 53.1656 6.39473C47.6138 2.21281 40.989 0 34 0C27.011 0 20.396 2.21281 14.8442 6.38499C9.91256 10.1088 6.14244 15.2557 4.1048 21.0168C1.75217 21.5725 0 23.6683 0 26.1541V36.5553C0 39.4602 2.39201 41.829 5.32542 41.829H11.7435C10.2177 38.6511 9.35147 35.1028 9.35147 31.3595C9.35147 27.6163 10.2079 24.0582 11.7435 20.8901H9.17428C11.0052 16.6595 13.9583 12.887 17.6792 10.0795C22.4042 6.52146 28.0446 4.64008 34 4.64008C39.9554 4.64008 45.5958 6.52146 50.3208 10.0795C54.0417 12.887 56.9948 16.6497 58.8257 20.8901H56.2565C57.7822 24.068 58.6485 27.6163 58.6485 31.3595C58.6485 35.1028 57.7921 38.6609 56.2565 41.829H62.6745C65.6079 41.829 68 39.4602 68 36.5553V26.1541C68.0098 23.6683 66.2478 21.5725 63.905 21.0266Z" fill="#DE3228"/>
<path d="M50.6455 49.3448C49.0016 50.8363 47.151 52.1133 45.1527 53.1271V54.5601C45.1527 60.6526 40.1522 65.6046 33.9999 65.6046C27.8476 65.6046 22.847 60.6526 22.847 54.5601V53.1271C20.8389 52.1133 18.9981 50.8363 17.3543 49.3448C8.13075 49.3838 0.629883 56.8314 0.629883 65.975V77.9847H67.3699V65.975C67.3797 56.8314 59.8788 49.3838 50.6455 49.3448ZM38.4197 55.3691C38.3901 55.3789 38.3606 55.3789 38.3311 55.3886C38.1637 55.4179 37.9865 55.4471 37.8192 55.4764C37.7601 55.4861 37.6912 55.4959 37.6322 55.5056C37.4747 55.5251 37.3073 55.5544 37.1498 55.5739C37.0809 55.5836 37.0022 55.5934 36.9333 55.6031C36.6872 55.6323 36.4509 55.6518 36.2048 55.6811C36.067 55.6908 35.9292 55.7006 35.7914 55.7103C35.693 55.7201 35.5847 55.7201 35.4764 55.7298C35.3189 55.7396 35.1614 55.7493 35.0039 55.7493C34.9153 55.7493 34.8366 55.7591 34.748 55.7591C34.5019 55.7688 34.2558 55.7688 34.0097 55.7688C33.7636 55.7688 33.5175 55.7688 33.2714 55.7591C33.1828 55.7591 33.1041 55.7493 33.0155 55.7493C32.858 55.7396 32.7005 55.7396 32.543 55.7298C32.4347 55.7201 32.3363 55.7201 32.228 55.7103C32.0902 55.7006 31.9524 55.6908 31.8146 55.6811C31.5685 55.6616 31.3322 55.6323 31.0861 55.6031C31.0172 55.5934 30.9385 55.5836 30.8696 55.5739C30.7121 55.5544 30.5447 55.5349 30.3872 55.5056C30.3282 55.4959 30.2593 55.4861 30.2002 55.4764C30.0329 55.4471 29.8557 55.4179 29.6883 55.3886C29.6588 55.3789 29.6293 55.3789 29.5998 55.3691C28.9107 55.2424 28.2315 55.0962 27.5621 54.911C27.7491 58.2741 30.5743 60.9548 34.0196 60.9548C37.4648 60.9548 40.29 58.2741 40.477 54.911C39.7879 55.0962 39.1087 55.2424 38.4197 55.3691ZM33.9999 11.5808C26.499 11.5808 19.9628 15.6945 16.5471 21.7578C17.0589 21.8163 17.5708 21.8553 18.0925 21.8553C21.1539 21.8553 24.107 20.7635 26.4104 18.7846L28.0543 17.3712L29.5899 18.9016C32.7497 22.0405 36.9628 23.7659 41.4318 23.7659C44.8279 23.7659 48.1255 22.7424 50.8916 20.861C47.3774 15.2851 41.1168 11.5808 33.9999 11.5808ZM32.0213 40.4936H35.9883C37.2089 40.4936 38.2917 41.059 38.9808 41.9363L50.9113 41.8583C52.8505 38.8169 53.9726 35.2101 53.9726 31.3499C53.9726 29.1566 53.6084 27.051 52.9391 25.0721C49.5233 27.2167 45.5366 28.3865 41.4515 28.3865C36.4214 28.3865 31.6472 26.6806 27.8181 23.5417C24.9634 25.4523 21.5772 26.4856 18.0925 26.4856C16.9605 26.4856 15.8383 26.3784 14.7358 26.1639C14.283 27.8211 14.0369 29.566 14.0369 31.3596C14.0369 42.2677 22.9947 51.1287 33.9999 51.1287C38.8626 51.1287 43.3316 49.3936 46.7966 46.5179L38.9906 46.5666C38.2917 47.4537 37.2089 48.0191 35.9883 48.0191H32.0213C29.9246 48.0191 28.2118 46.3327 28.2118 44.2466C28.2118 42.1605 29.9148 40.4936 32.0213 40.4936Z" fill="#31559E"/>
</svg>
