<svg width="106" height="88" viewBox="0 0 106 88" fill="none" xmlns="http://www.w3.org/2000/svg">
<path d="M32.5174 54.1023L29.4063 51.034L26.047 53.5147C24.9962 52.9272 23.8792 52.4784 22.7125 52.152L22.1085 48.0474H15.2079L14.6039 52.152C13.4372 52.4784 12.3202 52.9272 11.2611 53.5147L7.91008 51.034L3.02006 55.8567L5.54367 59.1698C4.94794 60.2061 4.48458 61.3077 4.16189 62.4665L0 63.054V69.8678L4.16189 70.4554C4.48458 71.6141 4.94794 72.7158 5.54367 73.7521L3.02833 77.057L7.91835 81.8797L11.2694 79.399C12.3202 79.9865 13.4455 80.4435 14.6121 80.7699L15.2161 84.8664H22.1168L22.7208 80.7618C23.8874 80.4435 25.0044 79.9865 26.0635 79.399L29.4146 81.8797L32.5256 78.8115C30.2337 75.1312 29.0009 70.8879 29.0009 66.4569C29.0009 62.0259 30.2254 57.7825 32.5174 54.1023ZM18.6582 60.7039C21.8768 60.7039 24.4915 63.2825 24.4915 66.4569C24.4915 69.6312 21.8768 72.2098 18.6582 72.2098C15.4395 72.2098 12.8249 69.6312 12.8249 66.4569C12.8332 63.2825 15.4395 60.7039 18.6582 60.7039ZM106 69.8678V63.054L101.838 62.4665C101.515 61.3077 101.052 60.2061 100.456 59.1698L102.972 55.8567L98.0816 51.034L94.7224 53.5147C93.6715 52.9272 92.5545 52.4784 91.3879 52.152L90.7839 48.0474H83.8832L83.2792 52.152C82.1126 52.4784 80.9956 52.9272 79.9365 53.5147L76.5854 51.034L73.4826 54.1023C75.7746 57.7825 77.0074 62.0259 77.0074 66.4569C77.0074 70.8879 75.7828 75.1312 73.4826 78.8115L76.5937 81.8797L79.9447 79.399C80.9956 79.9865 82.1208 80.4435 83.2875 80.7699L83.8915 84.8664H90.7921L91.3961 80.7618C92.5628 80.4435 93.6798 79.9865 94.7389 79.399L98.0899 81.8797L102.98 77.057L100.465 73.7521C101.06 72.7076 101.524 71.606 101.846 70.4554L106 69.8678ZM87.3418 60.7039C90.5605 60.7039 93.1751 63.2825 93.1751 66.4569C93.1751 69.6312 90.5605 72.2098 87.3418 72.2098C84.1232 72.2098 81.5085 69.6312 81.5085 66.4569C81.5085 63.2825 84.1232 60.7039 87.3418 60.7039Z" fill="#DE3228"/>
<path d="M11.4924 51.0178L9.87891 49.8264V21.0453H26.9816V50.161L25.8232 51.0178C25.4426 50.8464 25.0537 50.6914 24.6565 50.5445L23.978 45.9258H13.3375L12.659 50.5445C12.2619 50.6832 11.873 50.8464 11.4924 51.0178ZM36.0252 49.7203C39.8313 45.9666 44.6965 43.6246 49.9588 42.9718V25.8272H32.8562V51.4177L33.7581 52.3071C34.4448 51.4013 35.1978 50.5363 36.0252 49.7203ZM72.2494 52.3071L72.9361 51.6298V9.63724H55.8252V42.9473C61.1703 43.5593 66.11 45.9095 69.974 49.7203C70.8014 50.5363 71.5626 51.4013 72.2494 52.3071ZM81.3427 50.5445L82.0211 45.9258H92.67L93.3484 50.5445C93.7456 50.6914 94.1345 50.8464 94.5151 51.0178L95.9217 49.9815V0H78.8108V50.0059L80.176 51.0178C80.5566 50.8464 80.9455 50.6832 81.3427 50.5445ZM53.0037 88C40.94 88 31.16 78.3546 31.16 66.457C31.16 54.5593 40.94 44.9139 53.0037 44.9139C65.0674 44.9139 74.8475 54.5593 74.8475 66.457C74.8475 78.3546 65.0674 88 53.0037 88ZM66.6561 61.8464L62.0308 57.2767L50.6208 68.5542L44.3821 62.4013L39.7734 66.9466L50.6208 77.6447L66.6561 61.8464Z" fill="#31559E"/>
</svg>
