<svg width="80" height="79" viewBox="0 0 80 79" fill="none" xmlns="http://www.w3.org/2000/svg">
<g clip-path="url(#clip0_650_5755)">
<path d="M44.3048 32.1738L47.4286 32.1547C49.4095 30.0697 51.7905 27.6022 54.9143 27.7935C58.0381 27.6213 60.419 30.0506 62.4 32.1547C63.7143 32.2121 66.2857 32.0017 67.5238 32.4799V12.5482H12.4952V44.3586H35.2762L36.819 42.7901L36.8571 39.653C36.8952 35.5404 40.2095 32.2121 44.3048 32.1738ZM23.3333 25.192C20.0571 25.1346 20.0381 20.2186 23.3333 20.1613H56.6667C59.9429 20.2186 59.9619 25.1155 56.6667 25.192H23.3333ZM77.5048 0H2.49524C1.12381 0 0 1.10944 0 2.48668V54.3818C0 55.7591 1.12381 56.8876 2.49524 56.8876H35.9429C33.7333 54.9174 32.0952 52.3351 32.5524 49.3511H10C8.62857 49.3511 7.50476 48.2225 7.50476 46.8453V10.0424C7.50476 8.66513 8.60952 7.53656 10 7.53656H70C71.3714 7.53656 72.4952 8.66513 72.4952 10.0424V37.1663C73.1238 38.5818 72.9143 41.2215 72.9714 42.7709L75.181 44.9898C78.7048 48.7199 77.6381 53.808 73.8667 56.8876H77.5238C78.8952 56.8685 80.019 55.7591 80.019 54.3818V2.48668C79.9809 1.10944 78.8762 0 77.5048 0Z" fill="#31559E"/>
<path d="M69.2761 68.3838L62.3808 68.4411L59.1999 71.5973L61.6761 78.4453C61.8284 78.8852 62.3046 79.0956 62.7427 78.9426C62.9523 78.8661 63.1237 78.7131 63.2189 78.5027L65.5427 73.5293L70.4761 75.8438C70.8951 76.0351 71.3904 75.8629 71.5808 75.4421C71.6761 75.2317 71.6761 75.0022 71.5999 74.8109L69.2761 68.3838ZM40.5332 68.3838L38.2094 74.7918C38.057 75.2317 38.2665 75.7099 38.7046 75.8629C38.9142 75.9395 39.1427 75.9203 39.3332 75.8438L44.2665 73.5293L46.5904 78.5218C46.7808 78.9426 47.2761 79.1148 47.6951 78.9235C47.9046 78.8278 48.057 78.6557 48.1332 78.4453L50.6094 71.5973L47.4094 68.4411L40.5332 68.3838ZM67.9808 44.8559L67.9427 39.6913C67.9237 38.314 66.838 37.2237 65.4665 37.2046L60.3237 37.1663L56.6475 33.5319C55.6761 32.5755 54.1142 32.5755 53.1427 33.5319L49.4856 37.1663L44.3427 37.2046C42.9713 37.2237 41.8856 38.314 41.8665 39.6913L41.8285 44.8559L38.2094 48.5286C37.257 49.5041 37.257 51.0726 38.2094 52.0482L41.8285 55.7208L41.8665 60.8855C41.8856 62.2627 42.9713 63.353 44.3427 63.3721L49.4856 63.4104L53.1618 67.0448C54.1332 68.0012 55.6951 68.0012 56.6665 67.0448L60.3237 63.4104L65.4665 63.3721C66.838 63.353 67.9237 62.2627 67.9427 60.8855L67.9808 55.7208L71.5999 52.0482C72.5523 51.0726 72.5523 49.5041 71.5999 48.5286L67.9808 44.8559ZM54.9142 56.9833C46.0951 56.7155 46.0951 43.8612 54.9142 43.5934C63.7142 43.8612 63.7142 56.7155 54.9142 56.9833Z" fill="#DE3228"/>
</g>
<defs>
<clipPath id="clip0_650_5755">
<rect width="80" height="79" fill="white"/>
</clipPath>
</defs>
</svg>
