<svg width="76" height="88" viewBox="0 0 76 88" fill="none" xmlns="http://www.w3.org/2000/svg">
<path d="M40.5904 4.80408H38.0662C37.4962 4.80408 37.0076 4.35624 37.0076 3.74556C37.0076 1.66921 35.3384 0 33.2621 0L28.2544 0C26.1781 0 24.5089 1.66921 24.5089 3.74556C24.5089 4.31553 24.0611 4.80408 23.4504 4.80408H21.7811C18.9313 4.80408 16.6514 7.1247 16.6514 9.93386V12.1731C16.6514 12.8245 17.1806 13.313 17.7913 13.313L44.5395 13.2723C45.1909 13.2723 45.6794 12.743 45.6794 12.1323V9.89315C45.7201 7.08399 43.3995 4.80408 40.5904 4.80408ZM33.6692 3.21629H28.7023C28.2952 3.21629 27.9695 2.89059 27.9695 2.48347C27.9695 2.07634 28.2952 1.75064 28.7023 1.75064H33.6692C34.0763 1.75064 34.402 2.07634 34.402 2.48347C34.402 2.89059 34.0763 3.21629 33.6692 3.21629Z" fill="#31559E"/>
<path d="M29.8018 45.1502C29.8018 45.8831 30.4124 46.4937 31.1453 46.4937H42.9112C44.784 45.3538 46.7789 44.4581 48.9367 43.8474H31.1453C30.4124 43.8067 29.8018 44.4174 29.8018 45.1502ZM51.1759 37.6998H31.2267C30.4939 37.6998 29.8832 38.3105 29.8832 39.0433C29.8832 39.7762 30.4939 40.3869 31.2267 40.3869H51.1759C51.2573 40.3869 51.3387 40.3869 51.4201 40.3461C52.0308 40.224 52.4787 39.6947 52.4787 39.0433C52.4787 38.2698 51.9087 37.6998 51.1759 37.6998Z" fill="#31559E"/>
<path d="M51.4198 20.4377C51.3383 20.4377 51.2569 20.4784 51.1755 20.4784H31.2263C30.4935 20.4784 29.8828 19.8677 29.8828 19.1349C29.8828 18.4021 30.4935 17.7914 31.2263 17.7914H51.1755C51.9083 17.7914 52.519 18.4021 52.519 19.1349C52.4783 19.7863 52.0304 20.3156 51.4198 20.4377Z" fill="#31559E"/>
<path d="M51.2977 26.5445C51.2163 26.5445 51.1348 26.5852 51.0534 26.5852H31.1043C30.3714 26.5852 29.7607 25.9745 29.7607 25.2417C29.7607 24.5089 30.3714 23.8982 31.1043 23.8982H51.0534C51.7862 23.8982 52.3969 24.5089 52.3969 25.2417C52.3969 25.8931 51.9084 26.4224 51.2977 26.5445Z" fill="#31559E"/>
<path d="M24.4681 45.476V50.7686C24.4681 51.99 23.4503 53.0078 22.2289 53.0078H12.8243C11.6029 53.0078 10.5851 51.99 10.5851 50.7686V41.364C10.5851 40.1426 11.6029 39.1248 12.8243 39.1248H21.7811L22.636 37.6999C22.5139 37.6999 22.3917 37.6592 22.2289 37.6592H12.8243C10.7887 37.6592 9.16016 39.3284 9.16016 41.3233V50.7279C9.16016 52.7635 10.8294 54.392 12.8243 54.392H22.2289C24.2645 54.392 25.893 52.7228 25.893 50.7279V42.9925L24.4681 45.476Z" fill="#31559E"/>
<path d="M18.3209 51.9085C17.8324 51.9085 17.3845 51.6643 17.0995 51.2571L12.0105 43.4403C11.5626 42.7889 11.7662 41.8932 12.4583 41.4454C13.1504 40.9976 14.0054 41.2011 14.4532 41.8932L18.2395 47.7559L24.6314 36.967C25.0385 36.2749 25.9342 36.0713 26.6263 36.4785C27.3184 36.8856 27.5219 37.7813 27.1148 38.4734L19.5423 51.1757C19.298 51.6235 18.8502 51.9085 18.3209 51.9085Z" fill="#31559E"/>
<path d="M24.4681 65.3844V70.6771C24.4681 71.8985 23.4503 72.9163 22.2289 72.9163H12.8243C11.6029 72.9163 10.5851 71.8985 10.5851 70.6771V61.2725C10.5851 60.0511 11.6029 59.0333 12.8243 59.0333H21.7811L22.636 57.6083C22.5139 57.6083 22.3917 57.5676 22.2289 57.5676H12.8243C10.7887 57.5676 9.16016 59.2368 9.16016 61.2318V70.6364C9.16016 72.672 10.8294 74.3005 12.8243 74.3005H22.2289C24.2645 74.3005 25.893 72.6313 25.893 70.6364V62.901L24.4681 65.3844Z" fill="#31559E"/>
<path d="M18.3209 71.7762C17.8324 71.7762 17.3845 71.5319 17.0995 71.1248L12.0105 63.308C11.5626 62.6566 11.7662 61.7609 12.4583 61.3131C13.1504 60.8652 14.0054 61.0688 14.4532 61.7609L18.2395 67.6235L24.6314 56.8347C25.0385 56.1426 25.9342 55.939 26.6263 56.3461C27.3184 56.7533 27.5219 57.649 27.1148 58.3411L19.5423 71.0841C19.298 71.5319 18.8502 71.7762 18.3209 71.7762Z" fill="#31559E"/>
<path d="M24.4681 25.6082V30.9008C24.4681 32.1222 23.4503 33.14 22.2289 33.14H12.8243C11.6029 33.14 10.5851 32.1222 10.5851 30.9008V21.4962C10.5851 20.2748 11.6029 19.257 12.8243 19.257H21.7811L22.636 17.8321C22.5139 17.8321 22.3917 17.7914 22.2289 17.7914H12.8243C10.7887 17.7914 9.16016 19.4606 9.16016 21.4555V30.8601C9.16016 32.8957 10.8294 34.5242 12.8243 34.5242H22.2289C24.2645 34.5242 25.893 32.855 25.893 30.8601V23.1247L24.4681 25.6082Z" fill="#31559E"/>
<path d="M18.3209 32.0001C17.8324 32.0001 17.3845 31.7558 17.0995 31.3487L12.0105 23.5319C11.5626 22.8805 11.7662 21.9848 12.4583 21.537C13.1504 21.0891 14.0054 21.2927 14.4532 21.9848L18.2395 27.8474L24.6314 17.0586C25.0385 16.3665 25.9342 16.1629 26.6263 16.57C27.3184 16.9771 27.5219 17.8728 27.1148 18.5649L19.5423 31.308C19.298 31.7151 18.8502 32.0001 18.3209 32.0001Z" fill="#31559E"/>
<path d="M62.3716 8.87534C62.3716 7.85753 61.5574 7.00256 60.4989 7.00256H47.5523C47.7966 7.73539 47.9187 8.50893 47.9187 9.32318V9.93387H56.8754C56.8754 11.2367 56.8755 26.911 56.9162 42.8296C58.7889 42.911 60.621 43.196 62.4124 43.6846C62.3716 26.3003 62.3716 9.16033 62.3716 8.87534ZM5.53691 77.2724C5.53691 77.191 5.4962 10.056 5.4962 9.97458H14.453V9.36389C14.453 8.54964 14.5751 7.7761 14.8194 7.04328H1.87278C0.854964 7.04328 0 7.85753 0 8.91605C0 10.4631 0.0407126 78.8195 0.0407126 80.2038C0.0407126 81.2216 0.854964 82.0765 1.91349 82.0765L35.9492 82.0358C34.8907 80.5702 33.9543 78.9824 33.2215 77.2724H5.53691Z" fill="#31559E"/>
<path d="M61.5172 49.7508C46.9421 48.163 38.1075 58.789 40.4688 70.4735C45.7614 90.8705 74.1381 87.5321 73.0795 64.0816C73.0388 62.7381 74.8709 62.6567 74.993 63.8781C77.9243 90.3005 45.4357 95.5117 36.3975 76.5804C34.484 72.7534 33.7105 66.7686 35.0947 61.6796C37.8632 51.0943 48.6927 43.3589 62.0057 47.0231C62.7793 47.2266 63.1864 48.0002 62.9828 48.7737C62.8607 49.3844 62.2093 49.7915 61.5172 49.7508Z" fill="#DE3228"/>
<path d="M72.4279 53.3742C71.9394 52.9671 71.2473 53.0485 70.8809 53.537L56.8757 70.6363C56.7536 70.4328 49.8325 60.2546 49.6696 60.0918C48.4482 58.5447 46.1683 58.3004 44.662 59.5218C43.1556 60.7432 42.8706 63.0231 44.092 64.5294C54.4737 77.476 54.433 77.6796 55.2065 78.1274C56.5093 78.9417 58.2193 78.4939 59.0335 77.191L72.6315 54.7584C72.9572 54.3513 72.8351 53.7406 72.4279 53.3742Z" fill="#DE3228"/>
</svg>
