<svg width="79" height="79" viewBox="0 0 79 79" fill="none" xmlns="http://www.w3.org/2000/svg">
<path d="M76.3579 60.285L58.5025 42.4448C54.9832 38.9255 49.7271 38.2399 45.4918 40.3271L29.2512 24.0866V14.6256L9.75042 0L0 9.75042L14.6256 29.2512H24.0866L40.3271 45.4918C38.2551 49.7271 38.9255 54.9832 42.4448 58.5025L60.285 76.3427C62.5093 78.567 66.1048 78.567 68.3139 76.3427L76.3427 68.3139C78.567 66.0895 78.567 62.4941 76.3579 60.285Z" fill="#31559E"/>
<path d="M34.2638 22.2127C34.1571 16.4996 36.1986 10.7712 40.5406 6.42926C46.1776 0.792302 54.1302 -1.12731 61.3516 0.655186C62.738 1.00559 63.2255 2.72715 62.22 3.73266L50.8852 15.0675L52.6067 25.4121L62.9513 27.1337L74.2862 15.7988C75.2917 14.7933 77.0133 15.2656 77.3484 16.6367C79.1461 23.8581 77.2265 31.8108 71.5743 37.463C69.5938 39.4436 67.3085 40.9061 64.9014 41.9573L61.961 39.0017C58.914 35.9547 54.8615 34.2789 50.55 34.2789C49.3007 34.2789 48.021 34.4312 46.787 34.7207L34.2638 22.2127ZM35.4673 56.324L16.6521 75.1545C12.8433 78.9632 6.67314 78.9632 2.86438 75.1545C-0.944377 71.3457 -0.944377 65.1755 2.86438 61.3668L26.0826 38.1333L34.7208 46.7716C33.9743 49.9862 34.3247 53.2922 35.4673 56.324ZM13.407 68.253C13.407 66.2267 11.7769 64.5966 9.75061 64.5966C7.72435 64.5966 6.0942 66.2267 6.0942 68.253C6.0942 70.264 7.73959 71.9094 9.75061 71.9094C11.7769 71.9094 13.407 70.264 13.407 68.253Z" fill="#DE3228"/>
</svg>
